<?xml version="1.0" encoding="utf-8"?>
<!-- Generator: Adobe Illustrator 16.0.2, SVG Export Plug-In . SVG Version: 6.00 Build 0)  -->
<!DOCTYPE svg PUBLIC "-//W3C//DTD SVG 1.1//EN" "http://www.w3.org/Graphics/SVG/1.1/DTD/svg11.dtd">
<svg version="1.1" id="Layer_1" xmlns="http://www.w3.org/2000/svg" xmlns:xlink="http://www.w3.org/1999/xlink" x="0px" y="0px"
	 width="5.332px" height="3.908px" viewBox="0 0 5.332 3.908" enable-background="new 0 0 5.332 3.908" xml:space="preserve">
<g>
	<linearGradient id="SVGID_1_" gradientUnits="userSpaceOnUse" x1="1.4316" y1="0.8848" x2="4.5527" y2="0.8848">
		<stop  offset="0" style="stop-color:#D3FFCF"/>
		<stop  offset="1" style="stop-color:#1DFFF2"/>
	</linearGradient>
	<path fill-rule="evenodd" clip-rule="evenodd" fill="url(#SVGID_1_)" d="M1.672,0.645h2.641c0.133,0,0.24,0.107,0.24,0.24
		c0,0.132-0.107,0.24-0.24,0.24H1.672c-0.133,0-0.24-0.107-0.24-0.24C1.432,0.752,1.539,0.645,1.672,0.645z"/>
	<linearGradient id="SVGID_2_" gradientUnits="userSpaceOnUse" x1="2.1523" y1="1.8447" x2="4.5527" y2="1.8447">
		<stop  offset="0" style="stop-color:#D3FFCF"/>
		<stop  offset="1" style="stop-color:#1DFFF2"/>
	</linearGradient>
	<path fill-rule="evenodd" clip-rule="evenodd" fill="url(#SVGID_2_)" d="M2.393,1.604h1.92c0.133,0,0.24,0.107,0.24,0.24
		c0,0.132-0.107,0.24-0.24,0.24h-1.92c-0.133,0-0.24-0.107-0.24-0.24C2.152,1.712,2.26,1.604,2.393,1.604z"/>
	<linearGradient id="SVGID_3_" gradientUnits="userSpaceOnUse" x1="0.9531" y1="2.8047" x2="4.5527" y2="2.8047">
		<stop  offset="0" style="stop-color:#D3FFCF"/>
		<stop  offset="1" style="stop-color:#1DFFF2"/>
	</linearGradient>
	<path fill-rule="evenodd" clip-rule="evenodd" fill="url(#SVGID_3_)" d="M1.193,2.564h3.119c0.133,0,0.24,0.107,0.24,0.24
		c0,0.132-0.107,0.24-0.24,0.24H1.193c-0.133,0-0.24-0.107-0.24-0.24C0.953,2.672,1.061,2.564,1.193,2.564z"/>
</g>
</svg>
