<?xml version="1.0" encoding="utf-8"?>
<!-- Generator: Adobe Illustrator 16.0.2, SVG Export Plug-In . SVG Version: 6.00 Build 0)  -->
<!DOCTYPE svg PUBLIC "-//W3C//DTD SVG 1.1//EN" "http://www.w3.org/Graphics/SVG/1.1/DTD/svg11.dtd">
<svg version="1.1" id="Layer_1" xmlns="http://www.w3.org/2000/svg" xmlns:xlink="http://www.w3.org/1999/xlink" x="0px" y="0px"
	 width="5.332px" height="3.908px" viewBox="0 0 5.332 3.908" enable-background="new 0 0 5.332 3.908" xml:space="preserve">
<g>
	<g>
		<path fill-rule="evenodd" clip-rule="evenodd" fill="#23262A" d="M1.672,0.645h2.641c0.131,0,0.238,0.107,0.238,0.24
			c0,0.132-0.107,0.24-0.238,0.24H1.672c-0.133,0-0.24-0.107-0.24-0.24C1.432,0.752,1.539,0.645,1.672,0.645z"/>
		<path fill-rule="evenodd" clip-rule="evenodd" fill="#23262A" d="M2.391,1.604h1.922c0.131,0,0.238,0.107,0.238,0.24
			c0,0.132-0.107,0.24-0.238,0.24H2.391c-0.131,0-0.238-0.107-0.238-0.24C2.152,1.712,2.26,1.604,2.391,1.604z"/>
		<path fill-rule="evenodd" clip-rule="evenodd" fill="#23262A" d="M1.191,2.564h3.121c0.131,0,0.238,0.107,0.238,0.24
			c0,0.132-0.107,0.24-0.238,0.24H1.191c-0.133,0-0.24-0.107-0.24-0.24C0.951,2.672,1.059,2.564,1.191,2.564z"/>
	</g>
</g>
</svg>
