<?xml version="1.0" encoding="utf-8"?>
<!-- Generator: Adobe Illustrator 16.0.2, SVG Export Plug-In . SVG Version: 6.00 Build 0)  -->
<!DOCTYPE svg PUBLIC "-//W3C//DTD SVG 1.1//EN" "http://www.w3.org/Graphics/SVG/1.1/DTD/svg11.dtd">
<svg version="1.1" id="Layer_1" xmlns="http://www.w3.org/2000/svg" xmlns:xlink="http://www.w3.org/1999/xlink" x="0px" y="0px"
	 width="14.25px" height="14.31px" viewBox="0 0 14.25 14.31" enable-background="new 0 0 14.25 14.31" xml:space="preserve">
<g>
	<path id="XMLID_1_" fill="#2DCFCE" d="M5.805,12.151h1.986V7.178h1.386l0.148-1.665H7.791c0,0,0-0.622,0-0.949
		c0-0.392,0.08-0.547,0.459-0.547c0.306,0,1.075,0,1.075,0V2.288c0,0-1.133,0-1.375,0c-1.478,0-2.144,0.652-2.144,1.896
		c0,1.086,0,1.328,0,1.328H4.772v1.686h1.033V12.151z"/>
	<path fill="#2DCFCE" d="M10.012,14.263h-5.93c-2.249,0-4.077-1.831-4.077-4.078v-5.93c0-2.248,1.828-4.077,4.077-4.077h5.93
		c2.249,0,4.078,1.829,4.078,4.077v5.93C14.09,12.432,12.261,14.263,10.012,14.263z M4.083,1.073c-1.753,0-3.18,1.428-3.18,3.182
		v5.93c0,1.754,1.427,3.182,3.18,3.182h5.93c1.754,0,3.181-1.428,3.181-3.182v-5.93c0-1.754-1.427-3.182-3.181-3.182H4.083z"/>
</g>
</svg>
