<?xml version="1.0" encoding="utf-8"?>
<!-- Generator: Adobe Illustrator 16.0.2, SVG Export Plug-In . SVG Version: 6.00 Build 0)  -->
<!DOCTYPE svg PUBLIC "-//W3C//DTD SVG 1.1//EN" "http://www.w3.org/Graphics/SVG/1.1/DTD/svg11.dtd">
<svg version="1.1" id="Layer_1" xmlns="http://www.w3.org/2000/svg" xmlns:xlink="http://www.w3.org/1999/xlink" x="0px" y="0px"
	 width="14.085px" height="14.263px" viewBox="0 0 14.085 14.263" enable-background="new 0 0 14.085 14.263" xml:space="preserve">
<g>
	<g id="XMLID_3_">
		<g>
			<path id="XMLID_81_" fill="#2DCFCE" d="M7.042,3.484c1.198,0,1.34,0.005,1.814,0.026c0.436,0.02,0.673,0.093,0.831,0.155
				c0.21,0.081,0.36,0.177,0.516,0.335c0.158,0.156,0.254,0.306,0.336,0.516c0.061,0.157,0.134,0.396,0.154,0.832
				c0.022,0.473,0.027,0.616,0.027,1.813c0,1.198-0.005,1.34-0.027,1.814c-0.02,0.436-0.093,0.674-0.154,0.831
				c-0.082,0.21-0.179,0.359-0.336,0.516c-0.156,0.158-0.306,0.255-0.516,0.337c-0.158,0.061-0.395,0.134-0.831,0.153
				C8.382,10.835,8.24,10.84,7.042,10.84c-1.197,0-1.34-0.005-1.813-0.027c-0.437-0.02-0.675-0.093-0.833-0.153
				c-0.209-0.082-0.359-0.179-0.516-0.337c-0.157-0.156-0.254-0.306-0.335-0.516C3.484,9.649,3.411,9.411,3.392,8.976
				C3.37,8.501,3.365,8.359,3.365,7.161c0-1.196,0.005-1.34,0.027-1.813c0.02-0.437,0.093-0.675,0.155-0.832
				c0.081-0.21,0.178-0.359,0.335-0.516c0.157-0.158,0.306-0.254,0.516-0.335C4.554,3.604,4.793,3.53,5.229,3.511
				C5.702,3.489,5.845,3.484,7.042,3.484 M7.042,2.676c-1.218,0-1.371,0.005-1.849,0.027C4.716,2.725,4.389,2.8,4.104,2.911
				C3.809,3.027,3.559,3.179,3.309,3.429c-0.248,0.249-0.401,0.5-0.517,0.794C2.68,4.508,2.605,4.835,2.583,5.313
				C2.563,5.79,2.557,5.943,2.557,7.161c0,1.219,0.006,1.371,0.027,1.851C2.605,9.488,2.68,9.814,2.792,10.1
				c0.116,0.296,0.269,0.546,0.517,0.796c0.25,0.249,0.5,0.402,0.794,0.517c0.285,0.11,0.612,0.188,1.089,0.209
				c0.478,0.021,0.631,0.026,1.849,0.026c1.219,0,1.371-0.005,1.85-0.026c0.477-0.021,0.803-0.099,1.088-0.209
				c0.295-0.114,0.546-0.268,0.795-0.517c0.249-0.25,0.402-0.5,0.517-0.796c0.11-0.285,0.187-0.611,0.208-1.088
				c0.022-0.479,0.027-0.632,0.027-1.851c0-1.218-0.005-1.371-0.027-1.848c-0.022-0.479-0.098-0.806-0.208-1.091
				c-0.115-0.294-0.269-0.545-0.517-0.794c-0.25-0.25-0.5-0.401-0.795-0.518C9.695,2.8,9.369,2.725,8.892,2.703
				C8.413,2.681,8.261,2.676,7.042,2.676"/>
			<path id="XMLID_78_" fill="#2DCFCE" d="M7.042,5.136c-1.119,0-2.025,0.907-2.025,2.025c0,1.119,0.906,2.027,2.025,2.027
				S9.069,8.28,9.069,7.161C9.069,6.043,8.161,5.136,7.042,5.136 M7.042,8.477c-0.727,0-1.315-0.589-1.315-1.315
				s0.588-1.315,1.315-1.315c0.727,0,1.315,0.589,1.315,1.315S7.769,8.477,7.042,8.477"/>
			<path id="XMLID_77_" fill="#2DCFCE" d="M9.607,4.649c0,0.297-0.24,0.537-0.538,0.537c-0.297,0-0.538-0.24-0.538-0.537
				c0-0.298,0.241-0.539,0.538-0.539C9.367,4.11,9.607,4.352,9.607,4.649"/>
		</g>
	</g>
	<path fill="#2DCFCE" d="M10.007,14.204H4.078C1.83,14.204,0,12.376,0,10.126V4.197C0,1.949,1.83,0.12,4.078,0.12h5.929
		c2.25,0,4.078,1.829,4.078,4.077v5.929C14.085,12.376,12.256,14.204,10.007,14.204z M4.078,1.017c-1.755,0-3.181,1.427-3.181,3.181
		v5.929c0,1.755,1.426,3.184,3.181,3.184h5.929c1.754,0,3.183-1.429,3.183-3.184V4.197c0-1.754-1.428-3.181-3.183-3.181H4.078z"/>
</g>
</svg>
