<?xml version="1.0" encoding="utf-8"?>
<!-- Generator: Adobe Illustrator 16.0.2, SVG Export Plug-In . SVG Version: 6.00 Build 0)  -->
<!DOCTYPE svg PUBLIC "-//W3C//DTD SVG 1.1//EN" "http://www.w3.org/Graphics/SVG/1.1/DTD/svg11.dtd">
<svg version="1.1" id="Layer_1" xmlns="http://www.w3.org/2000/svg" xmlns:xlink="http://www.w3.org/1999/xlink" x="0px" y="0px"
	 width="14.084px" height="14.2px" viewBox="0 0 14.084 14.2" enable-background="new 0 0 14.084 14.2" xml:space="preserve">
<g>
	<g id="Linkedin_3_">
		<path fill="#2DCFCE" d="M3.301,4.611h1.822v5.854H3.301V4.611z M4.212,1.699c0.582,0,1.054,0.473,1.054,1.055
			c0,0.584-0.472,1.055-1.054,1.055c-0.585,0-1.056-0.471-1.056-1.055C3.156,2.172,3.627,1.699,4.212,1.699"/>
		<path fill="#2DCFCE" d="M6.264,4.611h1.745V5.41h0.025c0.242-0.46,0.835-0.946,1.721-0.946c1.842,0,2.184,1.213,2.184,2.79v3.211
			h-1.82V7.617c0-0.679-0.012-1.552-0.945-1.552c-0.947,0-1.092,0.74-1.092,1.503v2.896H6.264V4.611z"/>
	</g>
	<path fill="#2DCFCE" d="M10.006,14.085H4.078C1.83,14.085,0,12.256,0,10.008v-5.93C0,1.829,1.83,0,4.078,0h5.928
		c2.25,0,4.078,1.829,4.078,4.078v5.93C14.084,12.256,12.256,14.085,10.006,14.085z M4.078,0.896c-1.753,0-3.182,1.427-3.182,3.182
		v5.93c0,1.753,1.428,3.182,3.182,3.182h5.928c1.755,0,3.183-1.429,3.183-3.182v-5.93c0-1.755-1.427-3.182-3.183-3.182H4.078z"/>
</g>
</svg>
